<mxfile host="app.diagrams.net" agent="Mozilla/5.0 (Macintosh; Intel Mac OS X 10_15_7) AppleWebKit/605.1.15 (KHTML, like Gecko) Version/17.3 Safari/605.1.15" version="24.7.17">
  <diagram name="Страница — 1" id="15N3o2uxonAEyo5rQq01">
    <mxGraphModel dx="1693" dy="1279" grid="0" gridSize="10" guides="1" tooltips="1" connect="1" arrows="1" fold="1" page="0" pageScale="1" pageWidth="827" pageHeight="1169" math="0" shadow="0">
      <root>
        <mxCell id="0" />
        <mxCell id="1" parent="0" />
        <mxCell id="CXMXcDEyWPbT2FRxD61T-2" value="Пользователь (User)" style="swimlane;childLayout=stackLayout;horizontal=1;startSize=50;horizontalStack=0;rounded=1;fontSize=14;fontStyle=1;strokeWidth=2;resizeParent=0;resizeLast=1;shadow=0;dashed=0;align=center;arcSize=4;labelBackgroundColor=none;sketch=1;curveFitting=1;jiggle=2;fontFamily=Comic Sans MS;whiteSpace=wrap;html=1;" vertex="1" parent="1">
          <mxGeometry x="270" y="40" width="160" height="120" as="geometry" />
        </mxCell>
        <mxCell id="CXMXcDEyWPbT2FRxD61T-3" value="id&lt;br&gt;login&amp;nbsp;&lt;br&gt;role" style="align=center;strokeColor=none;fillColor=none;spacingLeft=4;fontSize=12;verticalAlign=top;resizable=0;rotatable=0;part=1;labelBackgroundColor=none;rounded=1;sketch=1;curveFitting=1;jiggle=2;fontFamily=Comic Sans MS;fontStyle=1;html=1;" vertex="1" parent="CXMXcDEyWPbT2FRxD61T-2">
          <mxGeometry y="50" width="160" height="70" as="geometry" />
        </mxCell>
        <mxCell id="CXMXcDEyWPbT2FRxD61T-6" value="Проект (Project)" style="swimlane;childLayout=stackLayout;horizontal=1;startSize=50;horizontalStack=0;rounded=1;fontSize=14;fontStyle=1;strokeWidth=2;resizeParent=0;resizeLast=1;shadow=0;dashed=0;align=center;arcSize=4;labelBackgroundColor=none;sketch=1;curveFitting=1;jiggle=2;fontFamily=Comic Sans MS;whiteSpace=wrap;html=1;" vertex="1" parent="1">
          <mxGeometry x="511" y="230" width="159" height="150" as="geometry" />
        </mxCell>
        <mxCell id="CXMXcDEyWPbT2FRxD61T-7" value="id&lt;br&gt;name&amp;nbsp;&lt;br&gt;description&lt;br&gt;start_date&lt;br&gt;end_date&lt;br&gt;status" style="align=center;strokeColor=none;fillColor=none;spacingLeft=4;fontSize=12;verticalAlign=top;resizable=0;rotatable=0;part=1;labelBackgroundColor=none;rounded=1;sketch=1;curveFitting=1;jiggle=2;fontFamily=Comic Sans MS;fontStyle=1;html=1;" vertex="1" parent="CXMXcDEyWPbT2FRxD61T-6">
          <mxGeometry y="50" width="159" height="100" as="geometry" />
        </mxCell>
        <mxCell id="CXMXcDEyWPbT2FRxD61T-14" value="Участник проекта (ProjectParticipant)" style="swimlane;childLayout=stackLayout;horizontal=1;startSize=50;horizontalStack=0;rounded=1;fontSize=14;fontStyle=1;strokeWidth=2;resizeParent=0;resizeLast=1;shadow=0;dashed=0;align=center;arcSize=4;labelBackgroundColor=none;sketch=1;curveFitting=1;jiggle=2;fontFamily=Comic Sans MS;whiteSpace=wrap;html=1;" vertex="1" parent="1">
          <mxGeometry x="510" y="40" width="160" height="100" as="geometry" />
        </mxCell>
        <mxCell id="CXMXcDEyWPbT2FRxD61T-15" value="project_id&lt;br&gt;user_id&amp;nbsp;" style="align=center;strokeColor=none;fillColor=none;spacingLeft=4;fontSize=12;verticalAlign=top;resizable=0;rotatable=0;part=1;labelBackgroundColor=none;rounded=1;sketch=1;curveFitting=1;jiggle=2;fontFamily=Comic Sans MS;fontStyle=1;html=1;" vertex="1" parent="CXMXcDEyWPbT2FRxD61T-14">
          <mxGeometry y="50" width="160" height="50" as="geometry" />
        </mxCell>
        <mxCell id="CXMXcDEyWPbT2FRxD61T-17" value="Задача (Task)" style="swimlane;childLayout=stackLayout;horizontal=1;startSize=50;horizontalStack=0;rounded=1;fontSize=14;fontStyle=1;strokeWidth=2;resizeParent=0;resizeLast=1;shadow=0;dashed=0;align=center;arcSize=4;labelBackgroundColor=none;sketch=1;curveFitting=1;jiggle=2;fontFamily=Comic Sans MS;whiteSpace=wrap;html=1;" vertex="1" parent="1">
          <mxGeometry x="270" y="220" width="160" height="180" as="geometry" />
        </mxCell>
        <mxCell id="CXMXcDEyWPbT2FRxD61T-18" value="id&lt;br&gt;name&amp;nbsp;&lt;br&gt;description&lt;br&gt;start_date&lt;br&gt;end_date&lt;br&gt;status&lt;br&gt;priority&lt;br&gt;project_id" style="align=center;strokeColor=none;fillColor=none;spacingLeft=4;fontSize=12;verticalAlign=top;resizable=0;rotatable=0;part=1;labelBackgroundColor=none;rounded=1;sketch=1;curveFitting=1;jiggle=2;fontFamily=Comic Sans MS;fontStyle=1;html=1;" vertex="1" parent="CXMXcDEyWPbT2FRxD61T-17">
          <mxGeometry y="50" width="160" height="130" as="geometry" />
        </mxCell>
        <mxCell id="CXMXcDEyWPbT2FRxD61T-19" value="Участник задачи (TaskParticipant)" style="swimlane;childLayout=stackLayout;horizontal=1;startSize=50;horizontalStack=0;rounded=1;fontSize=14;fontStyle=1;strokeWidth=2;resizeParent=0;resizeLast=1;shadow=0;dashed=0;align=center;arcSize=4;labelBackgroundColor=none;sketch=1;curveFitting=1;jiggle=2;fontFamily=Comic Sans MS;whiteSpace=wrap;html=1;" vertex="1" parent="1">
          <mxGeometry x="50" y="250" width="160" height="100" as="geometry" />
        </mxCell>
        <mxCell id="CXMXcDEyWPbT2FRxD61T-20" value="task_id&lt;br&gt;user_id&amp;nbsp;" style="align=center;strokeColor=none;fillColor=none;spacingLeft=4;fontSize=12;verticalAlign=top;resizable=0;rotatable=0;part=1;labelBackgroundColor=none;rounded=1;sketch=1;curveFitting=1;jiggle=2;fontFamily=Comic Sans MS;fontStyle=1;html=1;" vertex="1" parent="CXMXcDEyWPbT2FRxD61T-19">
          <mxGeometry y="50" width="160" height="50" as="geometry" />
        </mxCell>
        <mxCell id="CXMXcDEyWPbT2FRxD61T-21" value="Чат (Chat)" style="swimlane;childLayout=stackLayout;horizontal=1;startSize=50;horizontalStack=0;rounded=1;fontSize=14;fontStyle=1;strokeWidth=2;resizeParent=0;resizeLast=1;shadow=0;dashed=0;align=center;arcSize=4;labelBackgroundColor=none;sketch=1;curveFitting=1;jiggle=2;fontFamily=Comic Sans MS;whiteSpace=wrap;html=1;" vertex="1" parent="1">
          <mxGeometry x="510.5" y="-150" width="159" height="140" as="geometry" />
        </mxCell>
        <mxCell id="CXMXcDEyWPbT2FRxD61T-22" value="id&lt;br&gt;type&lt;br&gt;project_id&lt;br&gt;user1_id&lt;br&gt;user2_id" style="align=center;strokeColor=none;fillColor=none;spacingLeft=4;fontSize=12;verticalAlign=top;resizable=0;rotatable=0;part=1;labelBackgroundColor=none;rounded=1;sketch=1;curveFitting=1;jiggle=2;fontFamily=Comic Sans MS;fontStyle=1;html=1;" vertex="1" parent="CXMXcDEyWPbT2FRxD61T-21">
          <mxGeometry y="50" width="159" height="90" as="geometry" />
        </mxCell>
        <mxCell id="CXMXcDEyWPbT2FRxD61T-23" value="Сообщение (Message)" style="swimlane;childLayout=stackLayout;horizontal=1;startSize=50;horizontalStack=0;rounded=1;fontSize=14;fontStyle=1;strokeWidth=2;resizeParent=0;resizeLast=1;shadow=0;dashed=0;align=center;arcSize=4;labelBackgroundColor=none;sketch=1;curveFitting=1;jiggle=2;fontFamily=Comic Sans MS;whiteSpace=wrap;html=1;" vertex="1" parent="1">
          <mxGeometry x="270" y="-230" width="160" height="160" as="geometry" />
        </mxCell>
        <mxCell id="CXMXcDEyWPbT2FRxD61T-24" value="id&lt;br&gt;chat_id&lt;br&gt;user_id&lt;br&gt;text&lt;br&gt;timestamp" style="align=center;strokeColor=none;fillColor=none;spacingLeft=4;fontSize=12;verticalAlign=top;resizable=0;rotatable=0;part=1;labelBackgroundColor=none;rounded=1;sketch=1;curveFitting=1;jiggle=2;fontFamily=Comic Sans MS;fontStyle=1;html=1;" vertex="1" parent="CXMXcDEyWPbT2FRxD61T-23">
          <mxGeometry y="50" width="160" height="110" as="geometry" />
        </mxCell>
        <mxCell id="CXMXcDEyWPbT2FRxD61T-25" value="Уведомление (Notification)" style="swimlane;childLayout=stackLayout;horizontal=1;startSize=50;horizontalStack=0;rounded=1;fontSize=14;fontStyle=1;strokeWidth=2;resizeParent=0;resizeLast=1;shadow=0;dashed=0;align=center;arcSize=4;labelBackgroundColor=none;sketch=1;curveFitting=1;jiggle=2;fontFamily=Comic Sans MS;whiteSpace=wrap;html=1;" vertex="1" parent="1">
          <mxGeometry x="-18" y="-110" width="161" height="158" as="geometry" />
        </mxCell>
        <mxCell id="CXMXcDEyWPbT2FRxD61T-26" value="id&lt;br&gt;user_id&lt;br&gt;type&lt;br&gt;message&lt;br&gt;timestamp&lt;br&gt;is_read" style="align=center;strokeColor=none;fillColor=none;spacingLeft=4;fontSize=12;verticalAlign=top;resizable=0;rotatable=0;part=1;labelBackgroundColor=none;rounded=1;sketch=1;curveFitting=1;jiggle=2;fontFamily=Comic Sans MS;fontStyle=1;html=1;" vertex="1" parent="CXMXcDEyWPbT2FRxD61T-25">
          <mxGeometry y="50" width="161" height="108" as="geometry" />
        </mxCell>
        <mxCell id="CXMXcDEyWPbT2FRxD61T-28" value="" style="edgeStyle=entityRelationEdgeStyle;fontSize=12;html=1;endArrow=ERoneToMany;rounded=0;sketch=1;hachureGap=4;jiggle=2;curveFitting=1;fontFamily=Architects Daughter;fontSource=https%3A%2F%2Ffonts.googleapis.com%2Fcss%3Ffamily%3DArchitects%2BDaughter;exitX=0.988;exitY=0.392;exitDx=0;exitDy=0;exitPerimeter=0;entryX=0;entryY=0.5;entryDx=0;entryDy=0;endSize=10;startSize=10;" edge="1" parent="1" source="CXMXcDEyWPbT2FRxD61T-2" target="CXMXcDEyWPbT2FRxD61T-14">
          <mxGeometry width="100" height="100" relative="1" as="geometry">
            <mxPoint x="420" y="180" as="sourcePoint" />
            <mxPoint x="520" y="80" as="targetPoint" />
          </mxGeometry>
        </mxCell>
        <mxCell id="CXMXcDEyWPbT2FRxD61T-31" value="" style="fontSize=12;html=1;endArrow=ERoneToMany;rounded=0;sketch=1;hachureGap=4;jiggle=2;curveFitting=1;fontFamily=Architects Daughter;fontSource=https%3A%2F%2Ffonts.googleapis.com%2Fcss%3Ffamily%3DArchitects%2BDaughter;entryX=0.5;entryY=1;entryDx=0;entryDy=0;exitX=0.5;exitY=0;exitDx=0;exitDy=0;endSize=10;startSize=10;" edge="1" parent="1" source="CXMXcDEyWPbT2FRxD61T-6" target="CXMXcDEyWPbT2FRxD61T-15">
          <mxGeometry width="100" height="100" relative="1" as="geometry">
            <mxPoint x="300" y="440" as="sourcePoint" />
            <mxPoint x="400" y="340" as="targetPoint" />
          </mxGeometry>
        </mxCell>
        <mxCell id="CXMXcDEyWPbT2FRxD61T-32" value="" style="fontSize=12;html=1;endArrow=ERoneToMany;rounded=0;sketch=1;hachureGap=4;jiggle=2;curveFitting=1;fontFamily=Architects Daughter;fontSource=https%3A%2F%2Ffonts.googleapis.com%2Fcss%3Ffamily%3DArchitects%2BDaughter;exitX=0;exitY=0.5;exitDx=0;exitDy=0;entryX=1;entryY=0.25;entryDx=0;entryDy=0;endSize=10;startSize=10;" edge="1" parent="1" source="CXMXcDEyWPbT2FRxD61T-6" target="CXMXcDEyWPbT2FRxD61T-18">
          <mxGeometry width="100" height="100" relative="1" as="geometry">
            <mxPoint x="438" y="97" as="sourcePoint" />
            <mxPoint x="520" y="100" as="targetPoint" />
          </mxGeometry>
        </mxCell>
        <mxCell id="CXMXcDEyWPbT2FRxD61T-33" value="" style="fontSize=12;html=1;endArrow=ERoneToMany;rounded=0;sketch=1;hachureGap=4;jiggle=2;curveFitting=1;fontFamily=Architects Daughter;fontSource=https%3A%2F%2Ffonts.googleapis.com%2Fcss%3Ffamily%3DArchitects%2BDaughter;exitX=0;exitY=0.231;exitDx=0;exitDy=0;entryX=1;entryY=0;entryDx=0;entryDy=0;endSize=10;startSize=10;exitPerimeter=0;" edge="1" parent="1" source="CXMXcDEyWPbT2FRxD61T-18" target="CXMXcDEyWPbT2FRxD61T-20">
          <mxGeometry width="100" height="100" relative="1" as="geometry">
            <mxPoint x="521" y="315" as="sourcePoint" />
            <mxPoint x="440" y="323" as="targetPoint" />
          </mxGeometry>
        </mxCell>
        <mxCell id="CXMXcDEyWPbT2FRxD61T-34" value="" style="edgeStyle=elbowEdgeStyle;fontSize=12;html=1;endArrow=ERoneToMany;rounded=0;sketch=1;hachureGap=4;jiggle=2;curveFitting=1;fontFamily=Architects Daughter;fontSource=https%3A%2F%2Ffonts.googleapis.com%2Fcss%3Ffamily%3DArchitects%2BDaughter;exitX=-0.006;exitY=0.4;exitDx=0;exitDy=0;exitPerimeter=0;entryX=0.5;entryY=0;entryDx=0;entryDy=0;elbow=vertical;endSize=12;startSize=12;jumpSize=8;" edge="1" parent="1" source="CXMXcDEyWPbT2FRxD61T-2" target="CXMXcDEyWPbT2FRxD61T-19">
          <mxGeometry width="100" height="100" relative="1" as="geometry">
            <mxPoint x="300" y="440" as="sourcePoint" />
            <mxPoint x="400" y="340" as="targetPoint" />
            <Array as="points">
              <mxPoint x="190" y="90" />
            </Array>
          </mxGeometry>
        </mxCell>
        <mxCell id="CXMXcDEyWPbT2FRxD61T-35" value="" style="fontSize=12;html=1;endArrow=ERoneToMany;rounded=1;sketch=1;hachureGap=4;jiggle=2;curveFitting=1;fontFamily=Architects Daughter;fontSource=https%3A%2F%2Ffonts.googleapis.com%2Fcss%3Ffamily%3DArchitects%2BDaughter;entryX=1;entryY=0.25;entryDx=0;entryDy=0;exitX=1;exitY=0.5;exitDx=0;exitDy=0;endSize=10;startSize=10;edgeStyle=elbowEdgeStyle;" edge="1" parent="1" source="CXMXcDEyWPbT2FRxD61T-7" target="CXMXcDEyWPbT2FRxD61T-22">
          <mxGeometry width="100" height="100" relative="1" as="geometry">
            <mxPoint x="601" y="240" as="sourcePoint" />
            <mxPoint x="600" y="150" as="targetPoint" />
            <Array as="points">
              <mxPoint x="730" y="120" />
            </Array>
          </mxGeometry>
        </mxCell>
        <mxCell id="CXMXcDEyWPbT2FRxD61T-36" value="" style="edgeStyle=orthogonalEdgeStyle;fontSize=12;html=1;endArrow=ERoneToMany;rounded=0;sketch=1;hachureGap=4;jiggle=2;curveFitting=1;fontFamily=Architects Daughter;fontSource=https%3A%2F%2Ffonts.googleapis.com%2Fcss%3Ffamily%3DArchitects%2BDaughter;exitX=0.75;exitY=0;exitDx=0;exitDy=0;endSize=12;startSize=12;" edge="1" parent="1" source="CXMXcDEyWPbT2FRxD61T-2">
          <mxGeometry width="100" height="100" relative="1" as="geometry">
            <mxPoint x="700" y="615" as="sourcePoint" />
            <mxPoint x="511" y="-40" as="targetPoint" />
            <Array as="points">
              <mxPoint x="390" y="-40" />
              <mxPoint x="511" y="-40" />
            </Array>
          </mxGeometry>
        </mxCell>
        <mxCell id="CXMXcDEyWPbT2FRxD61T-37" value="" style="edgeStyle=entityRelationEdgeStyle;fontSize=12;html=1;endArrow=ERoneToMany;rounded=0;sketch=1;hachureGap=4;jiggle=2;curveFitting=1;fontFamily=Architects Daughter;fontSource=https%3A%2F%2Ffonts.googleapis.com%2Fcss%3Ffamily%3DArchitects%2BDaughter;exitX=0;exitY=0.25;exitDx=0;exitDy=0;entryX=1;entryY=0.5;entryDx=0;entryDy=0;endSize=10;startSize=10;" edge="1" parent="1" source="CXMXcDEyWPbT2FRxD61T-22" target="CXMXcDEyWPbT2FRxD61T-24">
          <mxGeometry width="100" height="100" relative="1" as="geometry">
            <mxPoint x="438" y="97" as="sourcePoint" />
            <mxPoint x="520" y="100" as="targetPoint" />
          </mxGeometry>
        </mxCell>
        <mxCell id="CXMXcDEyWPbT2FRxD61T-38" value="" style="edgeStyle=orthogonalEdgeStyle;fontSize=12;html=1;endArrow=ERoneToMany;rounded=0;sketch=1;hachureGap=4;jiggle=2;curveFitting=1;fontFamily=Architects Daughter;fontSource=https%3A%2F%2Ffonts.googleapis.com%2Fcss%3Ffamily%3DArchitects%2BDaughter;exitX=0.005;exitY=0.178;exitDx=0;exitDy=0;endSize=12;startSize=12;entryX=0;entryY=0.25;entryDx=0;entryDy=0;exitPerimeter=0;" edge="1" parent="1" source="CXMXcDEyWPbT2FRxD61T-2" target="CXMXcDEyWPbT2FRxD61T-24">
          <mxGeometry width="100" height="100" relative="1" as="geometry">
            <mxPoint x="310" y="190" as="sourcePoint" />
            <mxPoint x="260" y="-120" as="targetPoint" />
            <Array as="points">
              <mxPoint x="240" y="61" />
              <mxPoint x="240" y="-152" />
            </Array>
          </mxGeometry>
        </mxCell>
        <mxCell id="CXMXcDEyWPbT2FRxD61T-39" value="" style="edgeStyle=entityRelationEdgeStyle;fontSize=12;html=1;endArrow=ERoneToMany;rounded=0;sketch=1;hachureGap=4;jiggle=2;curveFitting=1;fontFamily=Architects Daughter;fontSource=https%3A%2F%2Ffonts.googleapis.com%2Fcss%3Ffamily%3DArchitects%2BDaughter;exitX=-0.01;exitY=0.325;exitDx=0;exitDy=0;entryX=1;entryY=0.25;entryDx=0;entryDy=0;exitPerimeter=0;endSize=12;startSize=12;" edge="1" parent="1" source="CXMXcDEyWPbT2FRxD61T-2" target="CXMXcDEyWPbT2FRxD61T-26">
          <mxGeometry width="100" height="100" relative="1" as="geometry">
            <mxPoint x="310" y="260" as="sourcePoint" />
            <mxPoint x="410" y="160" as="targetPoint" />
          </mxGeometry>
        </mxCell>
      </root>
    </mxGraphModel>
  </diagram>
</mxfile>
